<?xml version="1.0" standalone="no"?>
<!DOCTYPE svg PUBLIC "-//W3C//DTD SVG 20010904//EN"
 "http://www.w3.org/TR/2001/REC-SVG-20010904/DTD/svg10.dtd">
<svg version="1.0" xmlns="http://www.w3.org/2000/svg"
 width="225.000000pt" height="225.000000pt" viewBox="0 0 225.000000 225.000000"
 preserveAspectRatio="xMidYMid meet">
<metadata>
Created by potrace 1.14, written by Peter Selinger 2001-2017
</metadata>
<g transform="translate(0.000000,225.000000) scale(0.100000,-0.100000)"
fill="#000000" stroke="none">
<path d="M975 2239 c-153 -20 -333 -88 -475 -180 -84 -55 -254 -225 -309 -309
-251 -386 -251 -864 0 -1250 55 -84 225 -254 309 -309 386 -251 864 -251 1250
0 84 55 254 225 309 309 251 386 251 864 0 1250 -55 84 -225 254 -309 309
-233 152 -502 214 -775 180z m420 -143 c323 -95 575 -334 681 -644 46 -133 58
-222 51 -377 -4 -99 -11 -151 -31 -220 -95 -322 -334 -575 -644 -681 -133 -46
-222 -58 -377 -51 -99 4 -151 11 -220 31 -322 95 -575 334 -681 644 -46 133
-58 222 -51 377 4 99 11 151 31 220 95 322 333 575 644 681 135 46 185 53 357
50 126 -3 164 -8 240 -30z"/>
<path d="M453 1623 c-7 -2 -13 -11 -13 -20 0 -8 61 -220 135 -471 102 -343
140 -461 156 -474 24 -20 110 -25 152 -9 27 11 20 -8 162 434 42 132 78 237
81 235 2 -3 49 -148 105 -324 56 -175 107 -326 115 -334 18 -18 167 -21 184
-4 11 11 280 918 280 945 0 9 -7 20 -16 23 -29 11 -160 6 -178 -7 -12 -9 -40
-101 -91 -302 -41 -160 -78 -299 -83 -310 -9 -21 -8 -24 -157 447 -33 105 -53
152 -68 163 -29 21 -145 20 -175 0 -16 -12 -44 -86 -119 -316 -70 -217 -100
-295 -106 -282 -4 10 -39 144 -76 298 -56 226 -73 283 -91 297 -18 14 -39 18
-104 17 -44 0 -87 -3 -93 -6z"/>
</g>
</svg>
